<svg width="24" height="24" viewBox="0 0 24 24" fill="none" xmlns="http://www.w3.org/2000/svg">
<path d="M11.3315 2.02148C13.7107 2.02148 15.6526 3.89542 15.7616 6.24772L15.7665 6.45648V7.38948C15.7665 7.8037 15.4307 8.13948 15.0165 8.13948C14.6368 8.13948 14.323 7.85733 14.2733 7.49125L14.2665 7.38948V6.45648C14.2665 4.89358 13.0444 3.61575 11.5039 3.52647L11.3315 3.52148H6.45646C4.89441 3.52148 3.61671 4.74362 3.52744 6.28406L3.52246 6.45648V17.5865C3.52246 19.1493 4.74436 20.4272 6.28412 20.5165L6.45646 20.5215H11.3415C12.8988 20.5215 14.1725 19.3039 14.2615 17.7693L14.2665 17.5975V16.6545C14.2665 16.2403 14.6022 15.9045 15.0165 15.9045C15.3962 15.9045 15.71 16.1866 15.7596 16.5527L15.7665 16.6545V17.5975C15.7665 19.9687 13.8997 21.9046 11.5558 22.0164L11.3415 22.0215H6.45646C4.07802 22.0215 2.1363 20.1474 2.02729 17.7952L2.02246 17.5865V6.45648C2.02246 4.07743 3.89622 2.13535 6.24777 2.02631L6.45646 2.02148H11.3315ZM19.3265 8.50234L19.4108 8.57478L22.3388 11.4898C22.3652 11.5159 22.3883 11.5426 22.4095 11.5707L22.3388 11.4898C22.3694 11.5202 22.3967 11.5526 22.421 11.5865C22.4381 11.6103 22.4538 11.6354 22.4681 11.6614C22.4707 11.6665 22.4733 11.6715 22.4759 11.6764C22.4886 11.7004 22.4998 11.7253 22.5097 11.7508C22.5137 11.762 22.5178 11.7733 22.5216 11.7847C22.5289 11.8058 22.535 11.8274 22.5402 11.8494C22.5426 11.8612 22.545 11.8729 22.5472 11.8846C22.5513 11.905 22.5543 11.9261 22.5564 11.9474C22.5575 11.9623 22.5585 11.977 22.5591 11.9917C22.5598 12.0016 22.56 12.0115 22.56 12.0214L22.5591 12.0497C22.5585 12.0651 22.5575 12.0805 22.556 12.0958L22.56 12.0214C22.56 12.0682 22.5557 12.1141 22.5475 12.1585C22.545 12.1696 22.5426 12.1814 22.5398 12.193C22.5348 12.2162 22.5284 12.2387 22.521 12.2607C22.5172 12.2709 22.5135 12.2813 22.5095 12.2915C22.5002 12.3164 22.4894 12.3405 22.4774 12.3639C22.4744 12.3692 22.4712 12.3751 22.468 12.381C22.4336 12.4443 22.3905 12.5015 22.3403 12.5517L22.3389 12.5527L19.4109 15.4687C19.1174 15.761 18.6425 15.76 18.3502 15.4665C18.0845 15.1997 18.0612 14.783 18.2796 14.4898L18.3524 14.4059L19.9915 12.7705L9.76896 12.7714C9.35475 12.7714 9.01896 12.4356 9.01896 12.0214C9.01896 11.6417 9.30112 11.3279 9.66719 11.2782L9.76896 11.2714L19.9935 11.2705L18.3525 9.63779C18.0857 9.37212 18.0605 8.95551 18.2777 8.66142L18.3502 8.57714C18.6158 8.31028 19.0324 8.28514 19.3265 8.50234Z" fill="white"/>
</svg>
