<svg width="20" height="20" viewBox="0 0 20 20" fill="none" xmlns="http://www.w3.org/2000/svg">
<path d="M15.7325 7.26569L15.8153 7.26682C16.1229 7.29224 16.3587 7.54764 16.375 7.85505L16.3671 8.02645L16.105 11.2358L15.8301 14.3678C15.7719 14.9931 15.7198 15.5204 15.6749 15.9355C15.5187 17.3823 14.5796 18.277 13.1638 18.3034C10.9578 18.3442 8.83731 18.3438 6.7781 18.2992C5.40331 18.2704 4.47805 17.3661 4.32462 15.9414L4.21858 14.8918L4.03328 12.8559L3.84347 10.6217L3.62643 7.9399C3.59946 7.59582 3.84959 7.29447 4.18512 7.2668C4.49269 7.24145 4.76525 7.45487 4.82932 7.75565L4.85426 8.00145L5.05805 10.5156L5.28057 13.1216C5.38038 14.2497 5.46695 15.1627 5.53622 15.804C5.62365 16.6158 6.05115 17.0337 6.80343 17.0495C8.84654 17.0936 10.9512 17.0941 13.1417 17.0536C13.9398 17.0387 14.374 16.625 14.4633 15.7978L14.5689 14.7538C14.5998 14.4321 14.6328 14.0769 14.6678 13.6911L14.8905 11.1282L15.1588 7.83959C15.1836 7.52419 15.4327 7.28242 15.7325 7.26569ZM3.10949 5.82432C2.77288 5.82432 2.5 5.54449 2.5 5.1993C2.5 4.88288 2.72929 4.62137 3.02679 4.57998L3.10949 4.57428H5.76476C6.0803 4.57428 6.35654 4.36607 6.45535 4.06608L6.47953 3.97345L6.68587 2.92111C6.86759 2.22414 7.45767 1.72792 8.14916 1.67195L8.27993 1.66667H11.7199C12.4229 1.66667 13.0436 2.1219 13.2826 2.82533L13.3228 2.96008L13.5203 3.9732C13.5822 4.29061 13.8354 4.52767 14.1417 4.56815L14.2351 4.57428H16.8905C17.2271 4.57428 17.5 4.85411 17.5 5.1993C17.5 5.51573 17.2707 5.77723 16.9732 5.81862L16.8905 5.82432H3.10949ZM11.7199 2.91672H8.27993C8.10892 2.91672 7.95691 3.01936 7.89377 3.14836L7.87235 3.20504L7.67483 4.21866C7.65067 4.34237 7.61566 4.46151 7.57093 4.5751L12.429 4.57526C12.4011 4.50439 12.377 4.43136 12.3569 4.35641L12.325 4.21841L12.1364 3.244C12.0923 3.07493 11.9561 2.95116 11.7918 2.92286L11.7199 2.91672Z" fill="white"/>
</svg>
